<svg xmlns="http://www.w3.org/2000/svg" viewBox="0 0 512 512">
  <defs>
    <linearGradient id="bg" x1="0" y1="0" x2="1" y2="1">
      <stop offset="0%" stop-color="#102033"/>
      <stop offset="100%" stop-color="#1f4d6b"/>
    </linearGradient>
  </defs>
  <rect width="512" height="512" rx="112" fill="url(#bg)"/>
  <circle cx="256" cy="256" r="138" fill="none" stroke="#dff3ff" stroke-width="18" opacity="0.9"/>
  <path d="M181 236c16-42 48-67 75-67 33 0 58 19 75 67" fill="none" stroke="#ffffff" stroke-linecap="round" stroke-width="20"/>
  <path d="M208 334c8-37 28-60 48-60s40 23 48 60" fill="none" stroke="#ffffff" stroke-linecap="round" stroke-width="20"/>
  <path d="M126 192c28-38 76-66 130-66 59 0 110 29 137 72" fill="none" stroke="#7fe0ff" stroke-linecap="round" stroke-width="16"/>
  <polygon points="382,186 360,185 371,206" fill="#7fe0ff"/>
  <path d="M384 320c-28 38-76 66-130 66-59 0-110-29-137-72" fill="none" stroke="#7fe0ff" stroke-linecap="round" stroke-width="16"/>
  <polygon points="130,326 152,327 141,306" fill="#7fe0ff"/>
</svg>
